<svg xmlns="http://www.w3.org/2000/svg" xmlns:xlink="http://www.w3.org/1999/xlink" width="62" height="62" viewBox="0 0 62 62"><defs><clipPath id="b"><rect width="62" height="62"/></clipPath></defs><g id="a" clip-path="url(#b)"><g transform="translate(0 15)"><path d="M188.115,390.912a5.506,5.506,0,1,1-5.508,5.508A5.51,5.51,0,0,1,188.115,390.912Zm0,9.654a4.148,4.148,0,1,0-4.15-4.146A4.15,4.15,0,0,0,188.115,400.566Z" transform="translate(-139.342 -366.134)" fill="#116e99"/><path d="M198.562,390.912a5.506,5.506,0,1,1-5.508,5.508A5.51,5.51,0,0,1,198.562,390.912Zm0,9.654a4.148,4.148,0,1,0-4.15-4.146A4.154,4.154,0,0,0,198.562,400.566Z" transform="translate(-193.054 -366.134)" fill="#116e99"/><path d="M216.505,391.191V396.2H186.733a6.467,6.467,0,0,0-1.213-5.007Z" transform="translate(-174.287 -365.257)" fill="#116e99"/><path d="M184.613,399.719a6.593,6.593,0,0,0-3.756,1.176V387.622h8.85l7.239,9.095V407.41h-5.815a6.575,6.575,0,0,0-6.519-7.691Zm3.827-10.267-2.779.153v6.958H194.1Z" transform="translate(-135.421 -376.469)" fill="#116e99"/><path d="M186,391.586a2.715,2.715,0,1,1-2.717,2.717A2.716,2.716,0,0,1,186,391.586Z" transform="translate(-137.223 -364.017)" fill="#116e99"/><path d="M196.444,391.586a2.715,2.715,0,1,1-2.717,2.717A2.716,2.716,0,0,1,196.444,391.586Z" transform="translate(-190.936 -364.017)" fill="#116e99"/><path d="M185.519,384.929h40.76v26.881h-40.76Z" transform="translate(-184.061 -388.929)" fill="#116e99"/></g></g></svg>