<svg xmlns="http://www.w3.org/2000/svg" width="28.468" height="28.503" viewBox="0 0 28.468 28.503"><g transform="translate(-13.486 -16.375)"><g transform="translate(13.486 16.375)"><path d="M14.711,44.878a.792.792,0,0,0,.325-.041l8.495-2.479a2.53,2.53,0,0,0,1.219-.732L40.277,26.1a5.691,5.691,0,0,0-8.048-8.048L16.743,33.578a3.372,3.372,0,0,0-.732,1.219l-2.479,8.495a1.256,1.256,0,0,0,.325,1.219A1.239,1.239,0,0,0,14.711,44.878ZM31.335,22.441l4.593,4.593L23.856,39.106l-4.593-4.593Zm4.959-3.617a3.438,3.438,0,0,1,2.317.935,3.338,3.338,0,0,1,0,4.634l-.935.894-4.593-4.593.894-.894A3.232,3.232,0,0,1,36.294,18.824ZM18,36.667l3.658,3.658-5.162,1.5Z" transform="translate(-13.486 -16.375)" fill="#116e99"/></g></g></svg>