<svg xmlns="http://www.w3.org/2000/svg" xmlns:xlink="http://www.w3.org/1999/xlink" width="62" height="62" viewBox="0 0 62 62"><defs><clipPath id="b"><rect width="62" height="62"/></clipPath></defs><g id="a" clip-path="url(#b)"><g transform="translate(-437.996 -309.038)"><path d="M495.926,402.45l-.587-4.171a2.086,2.086,0,0,0-2.053-1.8H445.648a2.086,2.086,0,0,0-2.054,1.8l-.587,4.171a1.173,1.173,0,0,0,1.173,1.335h.214v4.174a.974.974,0,0,0,.974.974h.173v4.987a1.528,1.528,0,0,0,1.528,1.528h6.814a1.528,1.528,0,0,0,1.528-1.528v-4.987h27.906v4.987a1.528,1.528,0,0,0,1.528,1.528h6.814a1.528,1.528,0,0,0,1.528-1.528v-4.987h.381a.974.974,0,0,0,.974-.974v-4.174h.214a1.173,1.173,0,0,0,1.168-1.335Zm-17.108-1.76-.349.836a.748.748,0,0,1-.692.461H461.16a.748.748,0,0,1-.692-.461l-.349-.836Zm3.711,6.823h-.508v-2.79h-6.7v2.79H463.638v-2.79h-6.7v2.79h-.519v-3.728h26.107Z" transform="translate(0 -44.576)" fill="#116e99"/><rect width="4.591" height="7.246" rx="0.782" transform="translate(491.098 326.178)" fill="#116e99"/><rect width="4.591" height="7.246" rx="0.782" transform="translate(443.254 326.178)" fill="#116e99"/><path d="M452.2,331.748h0v11.734a2.082,2.082,0,0,0-1.654,1.76l-.587,4.174a1.173,1.173,0,0,0,1.173,1.335h43.863a1.173,1.173,0,0,0,1.173-1.335l-.587-4.174a2.082,2.082,0,0,0-1.654-1.76V314.327h-2.071v-3.253a1.035,1.035,0,1,0-2.071,0v3.253H456.34v-3.253a1.035,1.035,0,1,0-2.071,0v3.253H452.2v17.419Zm5.415,17.158h-5.89a.792.792,0,0,1-.783-.9l.39-2.816a1.409,1.409,0,0,1,1.393-1.214h3.772a1.12,1.12,0,0,1,1.12,1.121Zm2.719-.977a.977.977,0,1,1-1.951,0v-.816a.977.977,0,1,1,1.951,0Zm5.447,0h-.484V339.5h.484Zm1.88,0h-.484V339.5h.484Zm1.88,0h-.484V339.5h.484Zm1.88,0h-.481V339.5h.484Zm1.88,0h-.484V339.5h.484Zm1.88,0h-.484V339.5h.484Zm1.88,0h-.484V339.5h.484Zm1.88,0h-.484V339.5h.484Zm1.88,0h-.5V339.5h.484Zm6.914,0a.977.977,0,1,1-1.951,0v-.816a.977.977,0,0,1,1.951,0Zm7.04-2.74.39,2.816a.792.792,0,0,1-.783.9h-5.89v-3.813a1.12,1.12,0,0,1,1.12-1.121h3.773a1.408,1.408,0,0,1,1.4,1.217Zm-37.389-23.5a3.024,3.024,0,0,1,3.024-3.024h2.49a1.948,1.948,0,0,1,1.9-1.528h16.5a1.947,1.947,0,0,1,1.9,1.528h2.49a3.024,3.024,0,0,1,3.024,3.024v10.059h2.872v11.7h-.7l-1.106-8.551a2.3,2.3,0,0,0-2.279-2H458.587a2.3,2.3,0,0,0-2.279,2L455.2,343.45h-.692v-11.7h2.872Z" transform="translate(-3.582 0)" fill="#116e99"/><path d="M496.452,334.064a2.086,2.086,0,0,0-2.086-2.086H468.975a2.086,2.086,0,0,0-2.086,2.086v9h29.575Zm-10.56-1.118h3.764l-5.339,9.143h-3.764ZM475.1,342.089h-2.523l5.339-9.143h2.523Zm-7.246-8.029a1.118,1.118,0,0,1,1.118-1.118h6.359l-5.339,9.143h-2.138Zm27.636,8.029h-9.7l5.339-9.143h3.244a1.118,1.118,0,0,1,1.118,1.118Z" transform="translate(-12.306 -11.312)" fill="#116e99"/></g></g></svg>