<svg xmlns="http://www.w3.org/2000/svg" xmlns:xlink="http://www.w3.org/1999/xlink" width="62" height="62" viewBox="0 0 62 62"><defs><clipPath id="b"><rect width="62" height="62"/></clipPath></defs><g id="a" clip-path="url(#b)"><g transform="translate(-19.813 -19.495)"><g transform="translate(22.3 20.9)"><path d="M45.731,81.4,57.29,77.03a.911.911,0,0,0,.625-.937V55.474A7.357,7.357,0,0,1,59.373,51.1L79.784,22.566a1.041,1.041,0,0,0-.833-1.666H23.341a1.041,1.041,0,0,0-.833,1.666L42.919,51.1a7.357,7.357,0,0,1,1.458,4.374V80.362A.993.993,0,0,0,45.731,81.4Z" transform="translate(-22.3 -20.9)" fill="#116e99"/></g></g></g></svg>