<svg xmlns="http://www.w3.org/2000/svg" xmlns:xlink="http://www.w3.org/1999/xlink" width="62" height="62" viewBox="0 0 62 62"><defs><clipPath id="b"><rect width="62" height="62"/></clipPath></defs><g id="a" clip-path="url(#b)"><g transform="translate(0 15)"><path d="M188.111,390.912a5.506,5.506,0,1,0,5.508,5.508A5.51,5.51,0,0,0,188.111,390.912Zm0,9.654a4.148,4.148,0,1,1,4.15-4.146A4.15,4.15,0,0,1,188.111,400.566Z" transform="translate(-175.36 -366.134)" fill="#116e99"/><path d="M198.558,390.912a5.506,5.506,0,1,0,5.508,5.508A5.51,5.51,0,0,0,198.558,390.912Zm0,9.654a4.148,4.148,0,1,1,4.15-4.146A4.154,4.154,0,0,1,198.558,400.566Z" transform="translate(-142.541 -366.134)" fill="#116e99"/><path d="M185.519,391.191V396.2h29.773a6.467,6.467,0,0,1,1.213-5.007Z" transform="translate(-166.212 -365.257)" fill="#116e99"/><path d="M193.19,399.719a6.593,6.593,0,0,1,3.756,1.176V387.622H188.1l-7.239,9.095V407.41h5.815a6.575,6.575,0,0,1,6.519-7.691Zm-3.827-10.267,2.779.153v6.958h-8.436Z" transform="translate(-180.857 -376.469)" fill="#116e99"/><path d="M186,391.586a2.715,2.715,0,1,0,2.717,2.717A2.716,2.716,0,0,0,186,391.586Z" transform="translate(-173.245 -364.017)" fill="#116e99"/><path d="M196.444,391.586a2.715,2.715,0,1,0,2.717,2.717A2.716,2.716,0,0,0,196.444,391.586Z" transform="translate(-140.427 -364.017)" fill="#116e99"/><path d="M226.279,384.929h-40.76V411.81h40.76ZM196.026,404.3h-4.2v-15.38h4.2Zm7.985,0h-4.2v-15.38h4.2Zm7.985,0h-4.2v-15.38H212Zm7.981,0h-4.2v-15.38h4.2Z" transform="translate(-166.212 -388.929)" fill="#116e99"/></g></g></svg>