<svg xmlns="http://www.w3.org/2000/svg" xmlns:xlink="http://www.w3.org/1999/xlink" width="500" height="103.536" viewBox="0 0 500 103.536">
  <defs>
    <linearGradient id="linear-gradient" y1="0.5" x2="1" y2="0.5" gradientUnits="objectBoundingBox">
      <stop offset="0" stop-color="#ff9500"/>
      <stop offset="1" stop-color="#dd5700"/>
    </linearGradient>
  </defs>
  <g id="Group_190" data-name="Group 190" transform="translate(-40 -32)">
    <g id="Group_35" data-name="Group 35" transform="translate(40 32)">
      <ellipse id="Ellipse_1" data-name="Ellipse 1" cx="52" cy="51.768" rx="52" ry="51.768" fill="url(#linear-gradient)"/>
      <g id="Group_10" data-name="Group 10" transform="translate(12.233 26.376)">
        <path id="Path_1" data-name="Path 1" d="M602.815,624.027a49.134,49.134,0,0,1-7.857-8.459,5.326,5.326,0,0,0-6.428-2.114c-.714.714-5,6.345-7.142,7.05a84.388,84.388,0,0,0-7.857,3.523Z" transform="translate(-573.531 -581.239)" fill="#fff"/>
        <g id="Group_9" data-name="Group 9" transform="translate(21.394)">
          <g id="Group_8" data-name="Group 8" transform="translate(0)">
            <g id="Group_6" data-name="Group 6">
              <g id="Group_1" data-name="Group 1">
                <path id="Path_2" data-name="Path 2" d="M608.031,605.573l-2.183-10.54,2.664-4.176L618.84,595.2l-3.655,5.785,3.714,6.259-1.717,1.986.362.628,2.169-2.519-3.809-6.29,3.847-6.109L607.959,590l-4.017,5.438a3.094,3.094,0,0,0-.6,1.7l-.238,5.769-11.459,14.861-1.01-.657a1.2,1.2,0,0,0-1.5.153l-.086.085,2.771,8.019a.579.579,0,0,0,1,.174L607.7,607.021a1.746,1.746,0,0,0,.333-1.448ZM592.793,623.43l-.9-2.479,14.285-18.013.462,2.457Z" transform="translate(-589.046 -590)" fill="#fff"/>
                <path id="Path_3" data-name="Path 3" d="M613.268,611.158l-7.188-12.521a1.191,1.191,0,0,0-1.459-.507.909.909,0,0,0-.54,1.274c.545,1.052,8.138,14.507,8.354,14.688a3.543,3.543,0,0,0,.833-2.933Z" transform="translate(-583.389 -586.952)" fill="#fff"/>
              </g>
              <path id="Path_4" data-name="Path 4" d="M616.106,620.051c-.119-2.19-1.545-3.895-3.181-3.809a3.583,3.583,0,0,0-2.748,4.131c.119,2.19,1.543,3.895,3.181,3.809a3.586,3.586,0,0,0,2.748-4.131Zm-2.876,2.474c-.843.048-1.581-.929-1.65-2.178s.559-2.3,1.4-2.348,1.581.931,1.65,2.181S614.073,622.479,613.23,622.525Z" transform="translate(-581.087 -580.06)" fill="#fff"/>
              <path id="Path_5" data-name="Path 5" d="M631.7,612.9l-1.781-5.421a2.809,2.809,0,0,0-2.174-1.888s-4.15-.714-6.428-1.1a8.588,8.588,0,0,0-1.65-.109l-6.428.2a1.148,1.148,0,0,0-1.112,1.153L612.051,616c.1-.012.207-.021.312-.029a6.271,6.271,0,0,1,5.866,3.864l4.557.45a7.152,7.152,0,0,0,1.545-.06l7.021-1.04a.565.565,0,0,0,.476-.555l.033-4.7a3.294,3.294,0,0,0-.159-1.038Zm-15.421,1.883-1.217.067a.372.372,0,0,1-.391-.35v-.133a.372.372,0,0,1,.35-.391l1.219-.067a.372.372,0,0,1,.39.352v.133a.371.371,0,0,1-.352.388Zm4.466-2.036-.355-.069-.319-2.807-.145-1.276-.179-1.557a.715.715,0,0,0-.745-.633l-.521.028a.626.626,0,0,0-.593.714l.324,2.836a.714.714,0,0,0,.745.631l.521-.029a.651.651,0,0,0,.271-.076l.238,2.1-4.493-.867a1.045,1.045,0,0,1-.843-.969l-.186-3.4c-.1-1.807.379-1.817.952-1.836,1.3-.048,3.474-.129,4.614-.16a.843.843,0,0,1,.859.714l.743,5.8a.762.762,0,0,1-.9.852Zm1.764-6.769a.5.5,0,0,1,.572-.59l4.735.821a2.254,2.254,0,0,1,1.755,1.512l1.667,5a.4.4,0,0,1-.388.526l-6.035-.126a1.038,1.038,0,0,1-1-.829Zm8.781,12.161a.348.348,0,0,1-.31.341l-4.8.574a.346.346,0,0,1-.362-.238l-.324-.926,5.8-.507Zm0-1.526-6.154.286-.036-.1c-.119-.341-.164-.536-.564-.557h-.076a.238.238,0,0,1-.221-.212l-.043-.4a.238.238,0,0,1,.238-.264l6.64-.117a.224.224,0,0,1,.238.226Z" transform="translate(-580.336 -584.552)" fill="#fff"/>
              <path id="Path_6" data-name="Path 6" d="M630.388,615.625h-.057a1.278,1.278,0,0,0-.952.588.548.548,0,0,1-.362.238l-3.769.6a.3.3,0,0,1-.281-.1,1.19,1.19,0,0,0-1-.386l-1.793.238a24.843,24.843,0,0,1-4.495-.238.543.543,0,0,0-.552.674l.214,1.093c.36,1.521.9,2.231,2.055,2.452l.952.193a6.835,6.835,0,0,0,2.676,0c2.871-.564,6.685-1.383,6.685-1.383a1.1,1.1,0,0,0,.831-.972l.191-2.619a.326.326,0,0,0-.348-.376Zm-5.866,3.881a.476.476,0,0,1-.336.452l-1.214.3a.569.569,0,0,1-.714-.583v-.952a.714.714,0,0,1,.612-.714l1.257-.155a.367.367,0,0,1,.4.391Zm4.416-1.712-.048.433a.42.42,0,0,1-.326.364l-2.924.574a.324.324,0,0,1-.386-.338l.014-.51a.4.4,0,0,1,.324-.383l2.976-.509a.319.319,0,0,1,.369.369Zm1.3.767a.312.312,0,0,1-.238.274l-.064.014c-.238.05-.414-.21-.39-.564l.055-.874a.768.768,0,0,1,.436-.714l.2-.04a.129.129,0,0,1,.155.143Z" transform="translate(-578.421 -580.293)" fill="#fff"/>
              <g id="Group_2" data-name="Group 2" transform="translate(43.862 22.285)">
                <path id="Path_7" data-name="Path 7" d="M624.312,606.288l-.714-.126-2.74,3.236.386,1.867a.4.4,0,0,0,.021.057l3.893-4.6a1.552,1.552,0,0,0-.845-.438Z" transform="translate(-620.857 -606.162)" fill="#fff"/>
                <path id="Path_8" data-name="Path 8" d="M625.245,607.032l-3.614,4.264,1.521.031,2.528-2.983Z" transform="translate(-620.569 -605.832)" fill="#fff"/>
              </g>
              <path id="Path_9" data-name="Path 9" d="M619.023,619.237a5.579,5.579,0,0,0-5.393-5.688,5.516,5.516,0,0,0-4.738,5.9h0a1.05,1.05,0,0,0,1.024-.667,4.524,4.524,0,0,1,3.759-3.036,4.762,4.762,0,0,1,4.524,3.6.9.9,0,0,0,.814.636h0A7.081,7.081,0,0,0,619.023,619.237Z" transform="translate(-581.546 -581.074)" fill="#fff"/>
              <g id="Group_3" data-name="Group 3" transform="translate(12.458 35.124)">
                <path id="Path_10" data-name="Path 10" d="M604.178,619.287c-.119-2.19-1.564-3.893-3.228-3.809a3.6,3.6,0,0,0-2.8,4.133c.119,2.19,1.567,3.9,3.231,3.809a3.6,3.6,0,0,0,2.8-4.133Zm-2.888,2.476c-.8.043-1.512-.936-1.581-2.183s.528-2.3,1.333-2.343,1.512.936,1.581,2.183-.531,2.3-1.333,2.343Z" transform="translate(-598.099 -615.475)" fill="#fff"/>
              </g>
              <g id="Group_5" data-name="Group 5" transform="translate(4.587 22.556)">
                <path id="Path_11" data-name="Path 11" d="M601.912,616.566,610.154,607l-.364-.638-8.809,10.185Z" transform="translate(-589.119 -606.359)" fill="#fff"/>
                <g id="Group_4" data-name="Group 4" transform="translate(4.877 11.063)">
                  <path id="Path_12" data-name="Path 12" d="M614.05,614.728l-15.152-.345a5.384,5.384,0,0,0-2.983.831,3.28,3.28,0,0,1,1.462.864l2.771.1a3.936,3.936,0,0,1,2.974-1.16c1.667-.024,3.174,1.641,3.571,3.788l6,.269a7.484,7.484,0,0,1,1.19-4.1A1.974,1.974,0,0,0,614.05,614.728Z" transform="translate(-595.915 -614.381)" fill="#fff"/>
                </g>
                <path id="Path_13" data-name="Path 13" d="M598.47,619.374c-.119-2.193-1.564-3.9-3.228-3.809a3.6,3.6,0,0,0-2.8,4.133c.119,2.19,1.567,3.9,3.231,3.809a3.593,3.593,0,0,0,2.8-4.133Zm-2.888,2.476c-.8.045-1.512-.933-1.581-2.183s.529-2.3,1.333-2.343,1.512.933,1.581,2.183-.531,2.3-1.333,2.336Z" transform="translate(-592.391 -602.875)" fill="#fff"/>
              </g>
              <path id="Path_14" data-name="Path 14" d="M613.008,619.359c.026.476-.212.871-.529.888s-.6-.352-.624-.824.212-.869.531-.888S612.984,618.888,613.008,619.359Z" transform="translate(-580.411 -579.19)" fill="#fff"/>
              <path id="Path_15" data-name="Path 15" d="M595.3,618.682c.024.476-.2.86-.5.876s-.567-.348-.59-.817.2-.86.5-.876S595.271,618.213,595.3,618.682Z" transform="translate(-587.098 -579.443)" fill="#fff"/>
              <path id="Path_16" data-name="Path 16" d="M601.019,618.624c.024.476-.2.859-.5.876s-.567-.35-.59-.817.2-.86.5-.876S600.993,618.155,601.019,618.624Z" transform="translate(-584.93 -579.464)" fill="#fff"/>
            </g>
            <g id="Group_7" data-name="Group 7" transform="translate(46.105 40.422)">
              <path id="Path_17" data-name="Path 17" d="M623.9,619.567a3.094,3.094,0,0,1-1.41,1.709,2.081,2.081,0,0,0,.638,0,2.692,2.692,0,0,0,2.009-1.962Z" transform="translate(-622.487 -619.315)" fill="#fff"/>
            </g>
          </g>
        </g>
      </g>
    </g>
    <path id="Path_1727" data-name="Path 1727" d="M44.015-18.018H12.645c-15.828,0-15.828,24.285,0,24.285H32.93c8.628,0,8.514,13.142,0,13.142H2.7l.114,5.485H32.93c15.828,0,16-24.17,0-24.17H12.645c-8.571,0-8.571-13.095,0-13.095l31.37-.114ZM58.471,13.294H87.261l4.762,11.542h5.952c-4.457-11.085-12.857-31.77-17.38-42.855l-15.552.057-17.085,42.8H53.91ZM60.7,7.818l8.114-20.342h8L85.042,7.818Zm77.711,17.075h5.543V-18.018h-5.543V16.723l-32.1-34.741H100.7V24.894h5.609V-9.847ZM148.3-18.018c0,10.742.114,32.056.114,42.855h20.97a21.375,21.375,0,0,0,18.513-10.742,22.409,22.409,0,0,0,.171-21.085,21.351,21.351,0,0,0-18.685-11.028C164.067-18.018,159.038-17.9,148.3-18.018Zm21.085,5.533c20.8,0,19.656,31.77,0,31.77H153.905v-31.77Zm84.8-5.543h-31.37c-15.828,0-15.828,24.285,0,24.285h20.285c8.628,0,8.514,13.142,0,13.142H212.855l.114,5.495h30.113c15.828,0,16-24.17,0-24.17H222.8c-8.571,0-8.571-13.095,0-13.095l31.37-.114Zm14.456,31.322h28.808l4.743,11.542h5.952c-4.457-11.085-12.857-31.77-17.38-42.855l-15.552.057-17.085,42.8h5.952Zm2.228-5.476,8.114-20.342h8L295.2,7.818Zm71.882,11.6h-26.4V-18.009h-5.657v42.9h32.056Zm42.512-37.427c-9.542,0-29.027.114-38.513,0v42.9h38.17v-5.6H352.3V4.838h28.742l.114-5.476H352.3V-12.485h32.97Z" transform="translate(154.734 81.654)" fill="#3390dc"/>
  </g>
</svg>
