<svg xmlns="http://www.w3.org/2000/svg" width="18.045" height="20.742" viewBox="0 0 18.045 20.742">
  <g id="truck-icon" transform="translate(-442.999 -310.039)">
    <path id="Path_36" data-name="Path 36" d="M461.04,398.515l-.2-1.422a.711.711,0,0,0-.7-.613H443.9a.711.711,0,0,0-.7.613l-.2,1.422a.4.4,0,0,0,.4.455h.073v1.423a.332.332,0,0,0,.332.332h.059v1.7a.521.521,0,0,0,.521.521h2.323a.521.521,0,0,0,.521-.521v-1.7h9.513v1.7a.521.521,0,0,0,.521.521h2.323a.521.521,0,0,0,.521-.521v-1.7h.13a.332.332,0,0,0,.332-.332V398.97h.073A.4.4,0,0,0,461.04,398.515Zm-5.832-.6-.119.285a.255.255,0,0,1-.236.157h-5.665a.255.255,0,0,1-.236-.157l-.119-.285Zm1.265,2.326H456.3v-.951h-2.283v.951h-3.984v-.951h-2.283v.951h-.177V398.97h8.9Z" transform="translate(0 -72.17)" fill="#116e99"/>
    <rect id="Rectangle_11" data-name="Rectangle 11" width="1.565" height="2.47" rx="0.782" transform="translate(459.394 315.54)" fill="#116e99"/>
    <rect id="Rectangle_12" data-name="Rectangle 12" width="1.565" height="2.47" rx="0.782" transform="translate(443.084 315.54)" fill="#116e99"/>
    <path id="Path_37" data-name="Path 37" d="M450.711,317.439h0v4a.71.71,0,0,0-.564.6l-.2,1.423a.4.4,0,0,0,.4.455H465.3a.4.4,0,0,0,.4-.455l-.2-1.423a.71.71,0,0,0-.564-.6V311.5h-.706v-1.109a.353.353,0,0,0-.706,0V311.5h-11.4v-1.109a.353.353,0,1,0-.706,0V311.5h-.706v5.938Zm1.846,5.849h-2.008a.27.27,0,0,1-.267-.307l.133-.96a.48.48,0,0,1,.475-.414h1.286a.382.382,0,0,1,.382.382Zm.927-.333a.333.333,0,1,1-.665,0v-.278a.333.333,0,1,1,.665,0Zm1.857,0h-.165v-2.874h.165Zm.641,0h-.165v-2.874h.165Zm.641,0h-.165v-2.874h.165Zm.641,0H457.1v-2.874h.165Zm.641,0h-.165v-2.874h.165Zm.641,0h-.165v-2.874h.165Zm.641,0h-.165v-2.874h.165Zm.641,0h-.165v-2.874h.165Zm.641,0H460.3v-2.874h.165Zm2.357,0a.333.333,0,1,1-.665,0v-.278a.333.333,0,0,1,.665,0Zm2.4-.934.133.96a.27.27,0,0,1-.267.307h-2.008v-1.3a.382.382,0,0,1,.382-.382h1.286A.48.48,0,0,1,465.229,322.021ZM452.48,314.01a1.031,1.031,0,0,1,1.031-1.031h.849a.664.664,0,0,1,.648-.521h5.624a.664.664,0,0,1,.648.521h.849a1.031,1.031,0,0,1,1.031,1.031v3.429h.979v3.989H463.9l-.377-2.915a.783.783,0,0,0-.777-.683h-9.856a.783.783,0,0,0-.777.683l-.377,2.915H451.5v-3.989h.979Z" transform="translate(-5.8 0)" fill="#116e99"/>
    <path id="Path_38" data-name="Path 38" d="M476.967,332.689a.711.711,0,0,0-.711-.711H467.6a.711.711,0,0,0-.711.711v3.067h10.082Zm-3.6-.381h1.283l-1.82,3.117h-1.283Zm-3.679,3.117h-.86l1.82-3.117h.86Zm-2.47-2.737a.381.381,0,0,1,.381-.381h2.168l-1.82,3.117h-.729Zm9.421,2.737h-3.307l1.82-3.117h1.106a.381.381,0,0,1,.381.381Z" transform="translate(-19.943 -18.317)" fill="#116e99"/>
  </g>
</svg>
